<svg xmlns="http://www.w3.org/2000/svg" version="1.1" width="3259px" height="670px" style="shape-rendering:geometricPrecision; text-rendering:geometricPrecision; image-rendering:optimizeQuality; fill-rule:evenodd; clip-rule:evenodd" xmlns:xlink="http://www.w3.org/1999/xlink">
    <g><path style="opacity:0.991" fill="#fefffe" d="M -0.5,-0.5 C 96.1667,-0.5 192.833,-0.5 289.5,-0.5C 289.5,13.5 289.5,27.5 289.5,41.5C 207.167,41.5 124.833,41.5 42.5,41.5C 42.5,90.8333 42.5,140.167 42.5,189.5C 28.1667,189.5 13.8333,189.5 -0.5,189.5C -0.5,126.167 -0.5,62.8333 -0.5,-0.5 Z"/></g>
    <g><path style="opacity:0.991" fill="#fefffe" d="M 2968.5,-0.5 C 3065.17,-0.5 3161.83,-0.5 3258.5,-0.5C 3258.5,62.8333 3258.5,126.167 3258.5,189.5C 3244.17,189.5 3229.83,189.5 3215.5,189.5C 3215.5,140.167 3215.5,90.8333 3215.5,41.5C 3133.17,41.5 3050.83,41.5 2968.5,41.5C 2968.5,27.5 2968.5,13.5 2968.5,-0.5 Z"/></g>
    <g><path style="opacity:0.977" fill="#fefffe" d="M 2864.5,180.5 C 2925.19,179.899 2969.35,206.232 2997,259.5C 3016.73,307.227 3017.4,355.227 2999,403.5C 2969.5,464.518 2920.67,492.351 2852.5,487C 2799.23,480.727 2761.39,453.227 2739,404.5C 2721.38,358.284 2721.05,311.951 2738,265.5C 2762.56,211.121 2804.73,182.788 2864.5,180.5 Z M 2867.5,219.5 C 2902.14,220.733 2927.97,236.4 2945,266.5C 2961.54,301.897 2964.87,338.564 2955,376.5C 2938.76,429.423 2903.26,452.257 2848.5,445C 2814.53,434.366 2792.7,411.866 2783,377.5C 2774.31,342.954 2775.97,308.954 2788,275.5C 2803.68,241.294 2830.18,222.627 2867.5,219.5 Z"/></g>
    <g><path style="opacity:0.977" fill="#fefffe" d="M 1130.5,185.5 C 1197.45,180.807 1235.78,211.474 1245.5,277.5C 1229.85,278.499 1214.18,278.833 1198.5,278.5C 1199.84,263.51 1196.34,249.843 1188,237.5C 1181.36,231.429 1173.52,227.929 1164.5,227C 1149.12,224.927 1133.78,225.26 1118.5,228C 1105.82,230.678 1096.66,237.844 1091,249.5C 1088.07,256.571 1086.07,263.904 1085,271.5C 1083.4,308.811 1083.07,346.145 1084,383.5C 1083.71,399.392 1087.71,414.059 1096,427.5C 1105.08,436.977 1116.25,441.81 1129.5,442C 1142.2,442.821 1154.87,442.488 1167.5,441C 1190.14,436.592 1201.64,422.759 1202,399.5C 1202.5,388.839 1202.67,378.172 1202.5,367.5C 1178.5,367.5 1154.5,367.5 1130.5,367.5C 1130.5,354.833 1130.5,342.167 1130.5,329.5C 1168.17,329.5 1205.83,329.5 1243.5,329.5C 1243.5,379.5 1243.5,429.5 1243.5,479.5C 1230.5,479.5 1217.5,479.5 1204.5,479.5C 1204.5,470.167 1204.5,460.833 1204.5,451.5C 1202.8,451.34 1201.13,451.506 1199.5,452C 1191.28,466.118 1179.28,475.452 1163.5,480C 1102.12,489.386 1062.62,464.219 1045,404.5C 1035.71,365.847 1034.04,326.847 1040,287.5C 1044.46,255.403 1058.3,228.237 1081.5,206C 1096.12,194.962 1112.46,188.129 1130.5,185.5 Z"/></g>
    <g><path style="opacity:0.972" fill="#fefffe" d="M 2047.5,186.5 C 2086.5,186.333 2125.5,186.5 2164.5,187C 2187.48,187.162 2209.15,192.495 2229.5,203C 2250.67,216.808 2263.17,236.308 2267,261.5C 2272.17,326.706 2242.34,362.873 2177.5,370C 2150.52,371.348 2123.52,371.848 2096.5,371.5C 2096.5,407.5 2096.5,443.5 2096.5,479.5C 2080.17,479.5 2063.83,479.5 2047.5,479.5C 2047.5,381.833 2047.5,284.167 2047.5,186.5 Z M 2096.5,224.5 C 2119.19,224.223 2141.85,224.723 2164.5,226C 2205.82,232.014 2221.99,255.514 2213,296.5C 2209.55,310.281 2201.38,320.115 2188.5,326C 2179.76,329.148 2170.76,331.148 2161.5,332C 2139.84,332.5 2118.17,332.667 2096.5,332.5C 2096.5,296.5 2096.5,260.5 2096.5,224.5 Z"/></g>
    <g><path style="opacity:0.977" fill="#fefffe" d="M 2390.5,187.5 C 2429.83,187.333 2469.17,187.5 2508.5,188C 2536.58,188.132 2561.24,197.132 2582.5,215C 2603.48,238.032 2609.32,264.532 2600,294.5C 2589.11,318.038 2570.95,332.871 2545.5,339C 2539.26,340.809 2532.93,342.143 2526.5,343C 2543.66,350.002 2557.49,361.169 2568,376.5C 2588.86,409.55 2607.7,443.883 2624.5,479.5C 2605.51,480.666 2586.51,480.833 2567.5,480C 2556.34,455.179 2544.51,430.679 2532,406.5C 2512.67,368.247 2481.5,352.247 2438.5,358.5C 2438.5,399.167 2438.5,439.833 2438.5,480.5C 2422.5,480.5 2406.5,480.5 2390.5,480.5C 2390.5,382.833 2390.5,285.167 2390.5,187.5 Z M 2438.5,225.5 C 2461.53,225.127 2484.53,225.627 2507.5,227C 2519.63,228.595 2530.63,232.929 2540.5,240C 2553.28,253.92 2556.62,269.92 2550.5,288C 2544.19,301.676 2533.85,311.01 2519.5,316C 2512.31,318.297 2504.98,319.964 2497.5,321C 2477.84,321.5 2458.17,321.667 2438.5,321.5C 2438.5,289.5 2438.5,257.5 2438.5,225.5 Z"/></g>
    <g><path style="opacity:0.976" fill="#fefffe" d="M 288.5,189.5 C 302.833,189.5 317.167,189.5 331.5,189.5C 331.5,273.167 331.5,356.833 331.5,440.5C 380.833,440.5 430.167,440.5 479.5,440.5C 479.5,453.5 479.5,466.5 479.5,479.5C 415.833,479.5 352.167,479.5 288.5,479.5C 288.5,382.833 288.5,286.167 288.5,189.5 Z"/></g>
    <g><path style="opacity:0.987" fill="#fefffe" d="M 555.5,189.5 C 616.167,189.5 676.833,189.5 737.5,189.5C 737.5,202.167 737.5,214.833 737.5,227.5C 691.167,227.5 644.833,227.5 598.5,227.5C 598.5,256.5 598.5,285.5 598.5,314.5C 640.833,314.5 683.167,314.5 725.5,314.5C 725.5,327.167 725.5,339.833 725.5,352.5C 683.167,352.5 640.833,352.5 598.5,352.5C 598.5,381.833 598.5,411.167 598.5,440.5C 647.167,440.5 695.833,440.5 744.5,440.5C 744.822,453.413 744.489,466.246 743.5,479C 680.834,479.5 618.168,479.667 555.5,479.5C 555.5,382.833 555.5,286.167 555.5,189.5 Z"/></g>
    <g><path style="opacity:0.97" fill="#fefffe" d="M 796.5,189.5 C 831.835,189.333 867.168,189.5 902.5,190C 942.9,194.729 970.066,216.229 984,254.5C 1000.64,307.83 1000.64,361.163 984,414.5C 968.852,454.31 940.019,475.81 897.5,479C 863.835,479.5 830.168,479.667 796.5,479.5C 796.5,382.833 796.5,286.167 796.5,189.5 Z M 839.5,227.5 C 860.522,227.191 881.522,227.691 902.5,229C 928.408,231.575 943.241,245.741 947,271.5C 948.125,292.302 948.625,313.136 948.5,334C 948.625,354.864 948.125,375.698 947,396.5C 943.947,421.22 930.114,435.386 905.5,439C 883.528,440.38 861.528,440.88 839.5,440.5C 839.5,369.5 839.5,298.5 839.5,227.5 Z"/></g>
    <g><path style="opacity:0.983" fill="#fefffe" d="M 1298.5,189.5 C 1359.5,189.5 1420.5,189.5 1481.5,189.5C 1481.5,202.167 1481.5,214.833 1481.5,227.5C 1434.83,227.5 1388.17,227.5 1341.5,227.5C 1341.5,256.5 1341.5,285.5 1341.5,314.5C 1384.17,314.5 1426.83,314.5 1469.5,314.5C 1469.5,327.167 1469.5,339.833 1469.5,352.5C 1426.83,352.5 1384.17,352.5 1341.5,352.5C 1341.5,381.833 1341.5,411.167 1341.5,440.5C 1390.17,440.5 1438.83,440.5 1487.5,440.5C 1487.5,453.5 1487.5,466.5 1487.5,479.5C 1424.6,479.831 1361.76,479.498 1299,478.5C 1298.5,382.167 1298.33,285.834 1298.5,189.5 Z"/></g>
    <g><path style="opacity:0.98" fill="#fefffe" d="M 1542.5,189.5 C 1582.19,189.048 1621.86,189.548 1661.5,191C 1690.56,195.43 1713.39,209.597 1730,233.5C 1745.81,262.957 1744.47,291.623 1726,319.5C 1716.71,331.223 1704.88,339.056 1690.5,343C 1689.59,344.699 1689.26,346.533 1689.5,348.5C 1712.9,350.114 1726.73,362.448 1731,385.5C 1731.86,391.143 1732.53,396.81 1733,402.5C 1733.5,428.165 1733.67,453.831 1733.5,479.5C 1719.17,479.5 1704.83,479.5 1690.5,479.5C 1690.67,453.831 1690.5,428.165 1690,402.5C 1690.09,381.45 1679.92,368.95 1659.5,365C 1634.52,363.64 1609.52,363.14 1584.5,363.5C 1584.5,402.167 1584.5,440.833 1584.5,479.5C 1570.5,479.5 1556.5,479.5 1542.5,479.5C 1542.5,382.833 1542.5,286.167 1542.5,189.5 Z M 1584.5,227.5 C 1611.52,227.14 1638.52,227.64 1665.5,229C 1676.56,230.432 1684.73,235.932 1690,245.5C 1691.41,249.057 1692.41,252.724 1693,256.5C 1693.67,269.833 1693.67,283.167 1693,296.5C 1691.78,308.7 1685.62,317.2 1674.5,322C 1668.61,323.645 1662.61,324.645 1656.5,325C 1632.5,325.5 1608.5,325.667 1584.5,325.5C 1584.5,292.833 1584.5,260.167 1584.5,227.5 Z"/></g>
    <g><path style="opacity:0.972" fill="#fefffe" d="M 1809.5,354.5 C 1859.17,354.5 1908.83,354.5 1958.5,354.5C 1958.5,367.5 1958.5,380.5 1958.5,393.5C 1908.83,393.5 1859.17,393.5 1809.5,393.5C 1809.5,380.5 1809.5,367.5 1809.5,354.5 Z"/></g>
    <g><path style="opacity:0.98" fill="#fefffe" d="M -0.5,478.5 C 13.8333,478.5 28.1667,478.5 42.5,478.5C 42.5,527.833 42.5,577.167 42.5,626.5C 124.833,626.5 207.167,626.5 289.5,626.5C 289.5,640.833 289.5,655.167 289.5,669.5C 192.833,669.5 96.1667,669.5 -0.5,669.5C -0.5,605.833 -0.5,542.167 -0.5,478.5 Z"/></g>
    <g><path style="opacity:0.038" fill="#fefffe" d="M 2653.5,479.5 C 2654.25,478.427 2655.25,478.26 2656.5,479C 2655.55,479.483 2654.55,479.649 2653.5,479.5 Z"/></g>
    <g><path style="opacity:0.976" fill="#fefffe" d="M 3258.5,478.5 C 3258.5,542.167 3258.5,605.833 3258.5,669.5C 3161.83,669.5 3065.17,669.5 2968.5,669.5C 2968.5,655.167 2968.5,640.833 2968.5,626.5C 3050.83,626.5 3133.17,626.5 3215.5,626.5C 3215.5,577.167 3215.5,527.833 3215.5,478.5C 3229.83,478.5 3244.17,478.5 3258.5,478.5 Z"/></g>
</svg>
